<svg xmlns="http://www.w3.org/2000/svg" width="19.289" height="19.289" viewBox="0 0 19.289 19.289">
  <g id="eye_closed" transform="translate(-0.793 -0.793)">
    <path id="Path_187" data-name="Path 187" d="M15.264,17.326A8.182,8.182,0,0,1,10.438,19C4.75,19,1.5,12.5,1.5,12.5A14.991,14.991,0,0,1,5.611,7.674m3.12-1.479A7.41,7.41,0,0,1,10.438,6c5.688,0,8.937,6.5,8.937,6.5a15.031,15.031,0,0,1-1.755,2.592m-5.46-.869a2.437,2.437,0,1,1-3.445-3.445" transform="translate(0 -2.062)" fill="none" stroke="#000" stroke-linecap="round" stroke-linejoin="round" stroke-width="1"/>
    <path id="Path_188" data-name="Path 188" d="M1.5,1.5,19.375,19.375" transform="translate(0 0)" fill="none" stroke="#000" stroke-linecap="round" stroke-linejoin="round" stroke-width="1"/>
  </g>
</svg>
