<svg id="import" xmlns="http://www.w3.org/2000/svg" width="12.714" height="13.952" viewBox="0 0 12.714 13.952">
  <g id="Group_2231" data-name="Group 2231" transform="translate(0 2.086)">
    <g id="Group_2230" data-name="Group 2230" transform="translate(0)">
      <path id="Path_183" data-name="Path 183" d="M76.29,153.6H72.476v.848h3.39v10.171H64.848V154.448h3.39V153.6H64.424a.424.424,0,0,0-.424.424v11.019a.424.424,0,0,0,.424.424H76.29a.424.424,0,0,0,.424-.424V154.024A.424.424,0,0,0,76.29,153.6Z" transform="translate(-64 -153.6)"/>
    </g>
  </g>
  <g id="Group_2233" data-name="Group 2233" transform="translate(3.391)">
    <g id="Group_2232" data-name="Group 2232">
      <path id="Path_184" data-name="Path 184" d="M172.217,7.756a.424.424,0,0,0-.6-.007l-1.823,1.783V.424a.424.424,0,1,0-.847,0V9.532l-1.823-1.783a.424.424,0,1,0-.592.606l2.543,2.487a.424.424,0,0,0,.6-.006l2.536-2.481A.424.424,0,0,0,172.217,7.756Z" transform="translate(-166.404)"/>
    </g>
  </g>
</svg>
